<?xml version="1.0" encoding="UTF-8"?>
<svg xmlns="http://www.w3.org/2000/svg" xmlns:xlink="http://www.w3.org/1999/xlink" width="10px" height="10px" viewBox="0 0 10 10" version="1.1">
<g id="surface1">
<path style=" stroke:none;fill-rule:evenodd;fill:rgb(0%,40.392157%,54.901963%);fill-opacity:1;" d="M 9.210938 7.789062 C 8.667969 7.773438 8.246094 7.828125 7.890625 7.980469 C 7.789062 8.019531 7.625 8.019531 7.613281 8.148438 C 7.667969 8.203125 7.675781 8.289062 7.722656 8.363281 C 7.804688 8.5 7.945312 8.683594 8.074219 8.777344 L 8.511719 9.085938 C 8.777344 9.25 9.074219 9.34375 9.332031 9.507812 C 9.484375 9.601562 9.632812 9.722656 9.78125 9.824219 C 9.859375 9.878906 9.90625 9.964844 10 10 L 10 9.980469 C 9.953125 9.917969 9.9375 9.832031 9.890625 9.761719 L 9.6875 9.566406 C 9.488281 9.304688 9.246094 9.074219 8.980469 8.882812 C 8.761719 8.734375 8.285156 8.53125 8.199219 8.28125 L 8.183594 8.269531 C 8.332031 8.253906 8.511719 8.199219 8.652344 8.160156 C 8.886719 8.097656 9.09375 8.113281 9.332031 8.050781 L 9.660156 7.957031 L 9.660156 7.894531 C 9.539062 7.773438 9.449219 7.613281 9.320312 7.496094 C 8.972656 7.199219 8.59375 6.910156 8.199219 6.667969 C 7.988281 6.53125 7.714844 6.441406 7.492188 6.328125 C 7.410156 6.289062 7.273438 6.269531 7.226562 6.199219 C 7.101562 6.050781 7.035156 5.855469 6.945312 5.679688 L 6.390625 4.503906 C 6.265625 4.238281 6.191406 3.976562 6.042969 3.734375 C 5.339844 2.585938 4.578125 1.886719 3.410156 1.207031 C 3.160156 1.0625 2.859375 1.003906 2.539062 0.929688 L 2.03125 0.902344 C 1.921875 0.851562 1.8125 0.726562 1.71875 0.664062 C 1.332031 0.421875 0.332031 -0.105469 0.0429688 0.589844 C -0.140625 1.027344 0.316406 1.460938 0.472656 1.683594 C 0.585938 1.839844 0.738281 2.015625 0.820312 2.191406 C 0.863281 2.304688 0.878906 2.425781 0.925781 2.546875 C 1.035156 2.847656 1.136719 3.175781 1.28125 3.453125 C 1.355469 3.597656 1.4375 3.746094 1.53125 3.875 C 1.585938 3.949219 1.683594 3.980469 1.703125 4.101562 C 1.605469 4.238281 1.601562 4.441406 1.546875 4.609375 C 1.300781 5.375 1.394531 6.320312 1.742188 6.882812 C 1.851562 7.050781 2.109375 7.421875 2.457031 7.28125 C 2.761719 7.160156 2.695312 6.773438 2.785156 6.4375 C 2.804688 6.355469 2.789062 6.300781 2.832031 6.246094 L 2.832031 6.261719 L 3.109375 6.824219 C 3.320312 7.15625 3.6875 7.5 3.996094 7.730469 C 4.15625 7.851562 4.285156 8.058594 4.492188 8.132812 L 4.492188 8.113281 L 4.476562 8.113281 C 4.4375 8.054688 4.375 8.027344 4.320312 7.980469 C 4.199219 7.859375 4.0625 7.707031 3.96875 7.574219 C 3.679688 7.195312 3.429688 6.777344 3.207031 6.34375 C 3.097656 6.132812 3 5.902344 2.914062 5.695312 C 2.871094 5.613281 2.871094 5.492188 2.804688 5.453125 C 2.703125 5.601562 2.550781 5.730469 2.476562 5.910156 C 2.347656 6.203125 2.335938 6.558594 2.289062 6.929688 C 2.257812 6.9375 2.273438 6.929688 2.257812 6.945312 C 2.042969 6.894531 1.96875 6.667969 1.886719 6.480469 C 1.683594 6 1.648438 5.230469 1.824219 4.675781 C 1.871094 4.535156 2.078125 4.085938 1.996094 3.953125 C 1.953125 3.824219 1.816406 3.75 1.742188 3.648438 C 1.65625 3.519531 1.558594 3.359375 1.5 3.214844 C 1.335938 2.835938 1.253906 2.417969 1.078125 2.039062 C 0.996094 1.863281 0.851562 1.679688 0.738281 1.519531 C 0.605469 1.335938 0.464844 1.207031 0.363281 0.992188 C 0.328125 0.917969 0.28125 0.796875 0.335938 0.714844 C 0.347656 0.660156 0.375 0.640625 0.429688 0.628906 C 0.519531 0.550781 0.769531 0.648438 0.859375 0.6875 C 1.109375 0.789062 1.320312 0.882812 1.53125 1.027344 C 1.628906 1.09375 1.730469 1.222656 1.851562 1.253906 L 1.996094 1.253906 C 2.210938 1.300781 2.457031 1.269531 2.660156 1.332031 C 3.023438 1.445312 3.347656 1.613281 3.640625 1.796875 C 4.53125 2.359375 5.265625 3.15625 5.761719 4.109375 C 5.84375 4.265625 5.878906 4.40625 5.953125 4.570312 C 6.097656 4.902344 6.273438 5.238281 6.414062 5.5625 C 6.558594 5.878906 6.695312 6.207031 6.898438 6.46875 C 7 6.609375 7.410156 6.683594 7.59375 6.757812 C 7.726562 6.820312 7.9375 6.875 8.0625 6.949219 C 8.292969 7.089844 8.523438 7.253906 8.742188 7.410156 C 8.851562 7.488281 9.191406 7.660156 9.210938 7.792969 Z M 2.277344 1.914062 C 2.179688 1.914062 2.085938 1.925781 1.996094 1.949219 L 1.996094 1.964844 L 2.011719 1.964844 C 2.066406 2.074219 2.160156 2.148438 2.226562 2.242188 L 2.382812 2.566406 L 2.398438 2.550781 C 2.492188 2.484375 2.539062 2.375 2.539062 2.214844 C 2.5 2.167969 2.492188 2.117188 2.460938 2.070312 C 2.417969 2.003906 2.328125 1.96875 2.277344 1.917969 Z M 2.277344 1.914062 "/>
</g>
</svg>
