<?xml version="1.0" encoding="UTF-8"?>
<svg xmlns="http://www.w3.org/2000/svg" xmlns:xlink="http://www.w3.org/1999/xlink" width="10px" height="10px" viewBox="0 0 10 10" version="1.1">
<g id="surface1">
<path style=" stroke:none;fill-rule:nonzero;fill:rgb(6.666667%,61.56863%,100%);fill-opacity:1;" d="M 0.453125 0 L 9.546875 0 C 9.796875 0 10 0.203125 10 0.453125 L 10 9.546875 C 10 9.796875 9.796875 10 9.546875 10 L 0.453125 10 C 0.203125 10 0 9.796875 0 9.546875 L 0 0.453125 C 0 0.203125 0.203125 0 0.453125 0 Z M 0.453125 0 "/>
<path style=" stroke:none;fill-rule:nonzero;fill:rgb(14.509805%,99.607843%,99.215686%);fill-opacity:1;" d="M 6.363281 4.089844 C 6.363281 3.839844 6.160156 3.636719 5.910156 3.636719 C 5.65625 3.636719 5.453125 3.839844 5.453125 4.089844 C 5.453125 4.34375 5.65625 4.546875 5.910156 4.546875 C 6.160156 4.546875 6.363281 4.34375 6.363281 4.089844 Z M 6.363281 4.089844 "/>
<path style=" stroke:none;fill-rule:nonzero;fill:rgb(14.509805%,99.607843%,99.215686%);fill-opacity:1;" d="M 8.183594 2.273438 C 8.183594 2.023438 7.976562 1.816406 7.726562 1.816406 C 7.476562 1.816406 7.273438 2.023438 7.273438 2.273438 C 7.273438 2.523438 7.476562 2.726562 7.726562 2.726562 C 7.976562 2.726562 8.183594 2.523438 8.183594 2.273438 Z M 8.183594 2.273438 "/>
<path style=" stroke:none;fill-rule:nonzero;fill:rgb(14.509805%,99.607843%,99.215686%);fill-opacity:1;" d="M 6.363281 2.273438 C 6.363281 2.023438 6.160156 1.816406 5.910156 1.816406 C 5.65625 1.816406 5.453125 2.023438 5.453125 2.273438 C 5.453125 2.523438 5.65625 2.726562 5.910156 2.726562 C 6.160156 2.726562 6.363281 2.523438 6.363281 2.273438 Z M 6.363281 2.273438 "/>
<path style=" stroke:none;fill-rule:nonzero;fill:rgb(14.509805%,99.607843%,99.215686%);fill-opacity:1;" d="M 4.546875 2.273438 C 4.546875 2.023438 4.34375 1.816406 4.089844 1.816406 C 3.839844 1.816406 3.636719 2.023438 3.636719 2.273438 C 3.636719 2.523438 3.839844 2.726562 4.089844 2.726562 C 4.34375 2.726562 4.546875 2.523438 4.546875 2.273438 Z M 4.546875 2.273438 "/>
<path style=" stroke:none;fill-rule:nonzero;fill:rgb(14.509805%,99.607843%,99.215686%);fill-opacity:1;" d="M 2.726562 2.273438 C 2.726562 2.023438 2.523438 1.816406 2.273438 1.816406 C 2.023438 1.816406 1.816406 2.023438 1.816406 2.273438 C 1.816406 2.523438 2.023438 2.726562 2.273438 2.726562 C 2.523438 2.726562 2.726562 2.523438 2.726562 2.273438 Z M 2.726562 2.273438 "/>
<path style=" stroke:none;fill-rule:nonzero;fill:rgb(14.509805%,99.607843%,99.215686%);fill-opacity:1;" d="M 2.726562 4.089844 C 2.726562 3.839844 2.523438 3.636719 2.273438 3.636719 C 2.023438 3.636719 1.816406 3.839844 1.816406 4.089844 C 1.816406 4.34375 2.023438 4.546875 2.273438 4.546875 C 2.523438 4.546875 2.726562 4.34375 2.726562 4.089844 Z M 2.726562 4.089844 "/>
<path style=" stroke:none;fill-rule:nonzero;fill:rgb(100%,100%,100%);fill-opacity:1;" d="M 2.273438 5.453125 C 2.023438 5.453125 1.816406 5.65625 1.816406 5.910156 L 1.816406 7.726562 C 1.816406 7.976562 2.023438 8.183594 2.273438 8.183594 C 2.523438 8.183594 2.726562 7.976562 2.726562 7.726562 L 2.726562 5.910156 C 2.726562 5.65625 2.523438 5.453125 2.273438 5.453125 Z M 2.273438 5.453125 "/>
<path style=" stroke:none;fill-rule:nonzero;fill:rgb(100%,100%,100%);fill-opacity:1;" d="M 5.910156 5.453125 C 5.65625 5.453125 5.453125 5.65625 5.453125 5.910156 L 5.453125 7.726562 C 5.453125 7.976562 5.65625 8.183594 5.910156 8.183594 C 6.160156 8.183594 6.363281 7.976562 6.363281 7.726562 L 6.363281 5.910156 C 6.363281 5.65625 6.160156 5.453125 5.910156 5.453125 Z M 5.910156 5.453125 "/>
<path style=" stroke:none;fill-rule:nonzero;fill:rgb(100%,100%,100%);fill-opacity:1;" d="M 4.089844 3.636719 C 3.839844 3.636719 3.636719 3.839844 3.636719 4.089844 L 3.636719 7.726562 C 3.636719 7.976562 3.839844 8.183594 4.089844 8.183594 C 4.34375 8.183594 4.546875 7.976562 4.546875 7.726562 L 4.546875 4.089844 C 4.546875 3.839844 4.34375 3.636719 4.089844 3.636719 Z M 4.089844 3.636719 "/>
<path style=" stroke:none;fill-rule:nonzero;fill:rgb(100%,100%,100%);fill-opacity:1;" d="M 7.726562 3.636719 C 7.476562 3.636719 7.273438 3.839844 7.273438 4.089844 L 7.273438 7.726562 C 7.273438 7.976562 7.476562 8.183594 7.726562 8.183594 C 7.976562 8.183594 8.183594 7.976562 8.183594 7.726562 L 8.183594 4.089844 C 8.183594 3.839844 7.976562 3.636719 7.726562 3.636719 Z M 7.726562 3.636719 "/>
</g>
</svg>
