<?xml version="1.0" encoding="UTF-8"?>
<svg xmlns="http://www.w3.org/2000/svg" xmlns:xlink="http://www.w3.org/1999/xlink" width="10px" height="10px" viewBox="0 0 10 10" version="1.1">
<g id="surface1">
<path style=" stroke:none;fill-rule:nonzero;fill:rgb(100%,85.490197%,26.666668%);fill-opacity:1;" d="M 2.675781 4.765625 C 3.421875 5.03125 4.210938 5.15625 5 5.140625 C 5.789062 5.15625 6.578125 5.03125 7.324219 4.765625 C 7.90625 4.539062 8.113281 4.289062 8.113281 4.140625 L 8.113281 3.03125 C 7.910156 3.167969 7.691406 3.28125 7.460938 3.367188 C 6.671875 3.648438 5.839844 3.789062 5 3.773438 C 4.160156 3.789062 3.328125 3.648438 2.539062 3.367188 C 2.308594 3.28125 2.089844 3.167969 1.886719 3.03125 L 1.886719 4.140625 C 1.886719 4.289062 2.09375 4.539062 2.675781 4.765625 Z M 2.675781 4.765625 "/>
<path style=" stroke:none;fill-rule:nonzero;fill:rgb(100%,85.490197%,26.666668%);fill-opacity:1;" d="M 2.675781 6.863281 C 2.9375 6.964844 3.210938 7.039062 3.488281 7.09375 C 3.984375 7.191406 4.492188 7.238281 5 7.234375 C 5.507812 7.238281 6.015625 7.191406 6.511719 7.09375 C 6.789062 7.042969 7.0625 6.964844 7.324219 6.863281 C 7.90625 6.636719 8.113281 6.382812 8.113281 6.238281 L 8.113281 5.179688 C 7.945312 5.28125 7.769531 5.367188 7.585938 5.4375 C 6.753906 5.730469 5.878906 5.871094 5 5.855469 C 4.121094 5.871094 3.246094 5.730469 2.414062 5.433594 C 2.230469 5.363281 2.054688 5.277344 1.886719 5.175781 L 1.886719 6.238281 C 1.886719 6.382812 2.09375 6.632812 2.675781 6.863281 Z M 2.675781 6.863281 "/>
<path style=" stroke:none;fill-rule:nonzero;fill:rgb(100%,85.490197%,26.666668%);fill-opacity:1;" d="M 5 9.375 C 6.71875 9.375 8.113281 8.828125 8.113281 8.15625 L 8.113281 7.273438 C 7.960938 7.363281 7.800781 7.445312 7.632812 7.507812 L 7.585938 7.53125 C 6.753906 7.824219 5.878906 7.96875 5 7.953125 C 4.121094 7.96875 3.246094 7.824219 2.414062 7.53125 C 2.398438 7.523438 2.382812 7.515625 2.367188 7.507812 C 2.199219 7.445312 2.039062 7.363281 1.886719 7.273438 L 1.886719 8.15625 C 1.886719 8.828125 3.28125 9.375 5 9.375 Z M 5 9.375 "/>
<path style=" stroke:none;fill-rule:nonzero;fill:rgb(100%,85.490197%,26.666668%);fill-opacity:1;" d="M 8.113281 1.84375 C 8.113281 1.167969 6.71875 0.625 5 0.625 C 3.28125 0.625 1.886719 1.167969 1.886719 1.84375 C 1.886719 2.515625 3.28125 3.058594 5 3.058594 C 6.71875 3.058594 8.113281 2.515625 8.113281 1.84375 Z M 8.113281 1.84375 "/>
</g>
</svg>
