<?xml version="1.0" encoding="UTF-8"?>
<svg xmlns="http://www.w3.org/2000/svg" xmlns:xlink="http://www.w3.org/1999/xlink" width="20px" height="20px" viewBox="0 0 20 20" version="1.1">
<g id="surface1">
<path style=" stroke:none;fill-rule:nonzero;fill:rgb(6.666667%,61.568627%,100%);fill-opacity:1;" d="M 0.910156 0 L 19.089844 0 C 19.59375 0 20 0.40625 20 0.910156 L 20 19.089844 C 20 19.59375 19.59375 20 19.089844 20 L 0.910156 20 C 0.40625 20 0 19.59375 0 19.089844 L 0 0.910156 C 0 0.40625 0.40625 0 0.910156 0 Z M 0.910156 0 "/>
<path style=" stroke:none;fill-rule:nonzero;fill:rgb(14.509804%,99.607843%,99.215686%);fill-opacity:1;" d="M 12.726562 8.183594 C 12.726562 8.683594 12.320312 9.089844 11.816406 9.089844 C 11.316406 9.089844 10.910156 8.683594 10.910156 8.183594 C 10.910156 7.679688 11.316406 7.273438 11.816406 7.273438 C 12.320312 7.273438 12.726562 7.679688 12.726562 8.183594 Z M 12.726562 8.183594 "/>
<path style=" stroke:none;fill-rule:nonzero;fill:rgb(14.509804%,99.607843%,99.215686%);fill-opacity:1;" d="M 16.363281 4.546875 C 16.363281 5.046875 15.957031 5.453125 15.453125 5.453125 C 14.953125 5.453125 14.546875 5.046875 14.546875 4.546875 C 14.546875 4.042969 14.953125 3.636719 15.453125 3.636719 C 15.957031 3.636719 16.363281 4.042969 16.363281 4.546875 Z M 16.363281 4.546875 "/>
<path style=" stroke:none;fill-rule:nonzero;fill:rgb(14.509804%,99.607843%,99.215686%);fill-opacity:1;" d="M 12.726562 4.546875 C 12.726562 5.046875 12.320312 5.453125 11.816406 5.453125 C 11.316406 5.453125 10.910156 5.046875 10.910156 4.546875 C 10.910156 4.042969 11.316406 3.636719 11.816406 3.636719 C 12.320312 3.636719 12.726562 4.042969 12.726562 4.546875 Z M 12.726562 4.546875 "/>
<path style=" stroke:none;fill-rule:nonzero;fill:rgb(14.509804%,99.607843%,99.215686%);fill-opacity:1;" d="M 9.089844 4.546875 C 9.089844 5.046875 8.683594 5.453125 8.183594 5.453125 C 7.679688 5.453125 7.273438 5.046875 7.273438 4.546875 C 7.273438 4.042969 7.679688 3.636719 8.183594 3.636719 C 8.683594 3.636719 9.089844 4.042969 9.089844 4.546875 Z M 9.089844 4.546875 "/>
<path style=" stroke:none;fill-rule:nonzero;fill:rgb(14.509804%,99.607843%,99.215686%);fill-opacity:1;" d="M 5.453125 4.546875 C 5.453125 5.046875 5.046875 5.453125 4.546875 5.453125 C 4.042969 5.453125 3.636719 5.046875 3.636719 4.546875 C 3.636719 4.042969 4.042969 3.636719 4.546875 3.636719 C 5.046875 3.636719 5.453125 4.042969 5.453125 4.546875 Z M 5.453125 4.546875 "/>
<path style=" stroke:none;fill-rule:nonzero;fill:rgb(14.509804%,99.607843%,99.215686%);fill-opacity:1;" d="M 5.453125 8.183594 C 5.453125 8.683594 5.046875 9.089844 4.546875 9.089844 C 4.042969 9.089844 3.636719 8.683594 3.636719 8.183594 C 3.636719 7.679688 4.042969 7.273438 4.546875 7.273438 C 5.046875 7.273438 5.453125 7.679688 5.453125 8.183594 Z M 5.453125 8.183594 "/>
<path style=" stroke:none;fill-rule:nonzero;fill:rgb(100%,100%,100%);fill-opacity:1;" d="M 4.546875 10.910156 C 4.042969 10.910156 3.636719 11.316406 3.636719 11.816406 L 3.636719 15.453125 C 3.636719 15.957031 4.042969 16.363281 4.546875 16.363281 C 5.046875 16.363281 5.453125 15.957031 5.453125 15.453125 L 5.453125 11.816406 C 5.453125 11.316406 5.046875 10.910156 4.546875 10.910156 Z M 4.546875 10.910156 "/>
<path style=" stroke:none;fill-rule:nonzero;fill:rgb(100%,100%,100%);fill-opacity:1;" d="M 11.816406 10.910156 C 11.316406 10.910156 10.910156 11.316406 10.910156 11.816406 L 10.910156 15.453125 C 10.910156 15.957031 11.316406 16.363281 11.816406 16.363281 C 12.320312 16.363281 12.726562 15.957031 12.726562 15.453125 L 12.726562 11.816406 C 12.726562 11.316406 12.320312 10.910156 11.816406 10.910156 Z M 11.816406 10.910156 "/>
<path style=" stroke:none;fill-rule:nonzero;fill:rgb(100%,100%,100%);fill-opacity:1;" d="M 8.183594 7.273438 C 7.679688 7.273438 7.273438 7.679688 7.273438 8.183594 L 7.273438 15.453125 C 7.273438 15.957031 7.679688 16.363281 8.183594 16.363281 C 8.683594 16.363281 9.089844 15.957031 9.089844 15.453125 L 9.089844 8.183594 C 9.089844 7.679688 8.683594 7.273438 8.183594 7.273438 Z M 8.183594 7.273438 "/>
<path style=" stroke:none;fill-rule:nonzero;fill:rgb(100%,100%,100%);fill-opacity:1;" d="M 15.453125 7.273438 C 14.953125 7.273438 14.546875 7.679688 14.546875 8.183594 L 14.546875 15.453125 C 14.546875 15.957031 14.953125 16.363281 15.453125 16.363281 C 15.957031 16.363281 16.363281 15.957031 16.363281 15.453125 L 16.363281 8.183594 C 16.363281 7.679688 15.957031 7.273438 15.453125 7.273438 Z M 15.453125 7.273438 "/>
</g>
</svg>
