<?xml version="1.0" encoding="UTF-8"?>
<svg xmlns="http://www.w3.org/2000/svg" xmlns:xlink="http://www.w3.org/1999/xlink" width="20px" height="20px" viewBox="0 0 20 20" version="1.1">
<g id="surface1">
<path style=" stroke:none;fill-rule:nonzero;fill:rgb(21.568627%,46.27451%,67.058824%);fill-opacity:1;" d="M 11.875 0.148438 L 12.625 0.316406 L 13.234375 0.535156 L 13.726562 0.785156 L 14.101562 1.050781 L 14.382812 1.332031 L 14.589844 1.617188 L 14.726562 1.890625 L 14.808594 2.140625 L 14.839844 2.359375 L 14.859375 2.523438 L 14.851562 2.632812 L 14.851562 7.082031 L 14.808594 7.609375 L 14.699219 8.066406 L 14.523438 8.449219 L 14.308594 8.765625 L 14.058594 9.023438 L 13.785156 9.234375 L 13.492188 9.390625 L 13.199219 9.507812 L 12.925781 9.589844 L 12.675781 9.648438 L 12.457031 9.683594 L 12.285156 9.699219 L 7.308594 9.699219 L 6.734375 9.742188 L 6.242188 9.859375 L 5.824219 10.042969 L 5.484375 10.265625 L 5.207031 10.535156 L 4.984375 10.824219 L 4.816406 11.125 L 4.691406 11.433594 L 4.609375 11.726562 L 4.550781 11.992188 L 4.515625 12.214844 L 4.5 12.390625 L 4.5 14.941406 L 2.640625 14.941406 L 2.464844 14.917969 L 2.234375 14.859375 L 1.964844 14.757812 L 1.675781 14.609375 L 1.375 14.390625 L 1.074219 14.089844 L 0.785156 13.707031 L 0.515625 13.214844 L 0.285156 12.609375 L 0.109375 11.875 L -0.0078125 11 L -0.0507812 9.976562 L 0 8.957031 L 0.132812 8.089844 L 0.332031 7.367188 L 0.601562 6.773438 L 0.898438 6.300781 L 1.234375 5.933594 L 1.582031 5.660156 L 1.933594 5.457031 L 2.265625 5.324219 L 2.566406 5.242188 L 2.832031 5.199219 L 3.035156 5.191406 L 3.167969 5.191406 L 3.214844 5.199219 L 10.015625 5.199219 L 10.015625 4.507812 L 5.148438 4.507812 L 5.140625 2.214844 L 5.125 1.910156 L 5.167969 1.625 L 5.257812 1.367188 L 5.398438 1.132812 L 5.609375 0.917969 L 5.867188 0.726562 L 6.183594 0.558594 L 6.550781 0.410156 L 6.976562 0.285156 L 7.457031 0.183594 L 7.992188 0.101562 L 8.582031 0.0507812 L 9.226562 0.015625 L 9.925781 0 L 10.984375 0.0429688 Z M 6.625 1.800781 L 6.433594 2.074219 L 6.367188 2.417969 L 6.433594 2.757812 L 6.625 3.042969 L 6.898438 3.226562 L 7.242188 3.300781 L 7.582031 3.226562 L 7.859375 3.042969 L 8.050781 2.757812 L 8.117188 2.417969 L 8.050781 2.074219 L 7.859375 1.800781 L 7.582031 1.617188 L 7.242188 1.542969 L 6.898438 1.617188 Z M 17.535156 5.089844 L 17.765625 5.140625 L 18.035156 5.242188 L 18.324219 5.390625 L 18.625 5.617188 L 18.925781 5.910156 L 19.214844 6.300781 L 19.484375 6.792969 L 19.714844 7.398438 L 19.890625 8.132812 L 20.007812 9 L 20.050781 10.023438 L 20 11.050781 L 19.867188 11.917969 L 19.667969 12.632812 L 19.398438 13.226562 L 19.101562 13.699219 L 18.765625 14.074219 L 18.417969 14.351562 L 18.066406 14.550781 L 17.734375 14.683594 L 17.433594 14.757812 L 17.167969 14.800781 L 16.964844 14.816406 L 16.832031 14.808594 L 9.984375 14.808594 L 9.984375 15.492188 L 14.851562 15.492188 L 14.859375 17.792969 L 14.875 18.089844 L 14.832031 18.375 L 14.742188 18.632812 L 14.601562 18.875 L 14.390625 19.082031 L 14.132812 19.285156 L 13.816406 19.449219 L 13.449219 19.589844 L 13.023438 19.714844 L 12.542969 19.824219 L 12.007812 19.898438 L 11.417969 19.957031 L 10.773438 19.992188 L 10.074219 20 L 9.015625 19.964844 L 8.125 19.851562 L 7.375 19.683594 L 6.765625 19.476562 L 6.273438 19.226562 L 5.898438 18.949219 L 5.617188 18.667969 L 5.410156 18.382812 L 5.273438 18.109375 L 5.191406 17.859375 L 5.160156 17.648438 L 5.140625 17.484375 L 5.148438 17.375 L 5.148438 12.925781 L 5.191406 12.390625 L 5.300781 11.941406 L 5.476562 11.558594 L 5.691406 11.242188 L 5.941406 10.976562 L 6.214844 10.773438 L 6.507812 10.609375 L 6.800781 10.492188 L 7.074219 10.410156 L 7.324219 10.359375 L 7.542969 10.324219 L 7.714844 10.308594 L 7.824219 10.300781 L 12.691406 10.300781 L 13.265625 10.257812 L 13.757812 10.140625 L 14.175781 9.964844 L 14.515625 9.734375 L 14.792969 9.464844 L 15.015625 9.175781 L 15.183594 8.875 L 15.308594 8.574219 L 15.390625 8.285156 L 15.449219 8.015625 L 15.484375 7.785156 L 15.5 7.609375 L 15.5 5.058594 L 17.242188 5.058594 L 17.359375 5.066406 Z M 12.140625 16.964844 L 11.949219 17.242188 L 11.882812 17.582031 L 11.949219 17.925781 L 12.140625 18.199219 L 12.417969 18.390625 L 12.757812 18.457031 L 13.101562 18.390625 L 13.375 18.199219 L 13.566406 17.925781 L 13.632812 17.582031 L 13.566406 17.242188 L 13.375 16.964844 L 13.101562 16.773438 L 12.757812 16.707031 L 12.417969 16.773438 Z M 12.140625 16.964844 "/>
</g>
</svg>
