<?xml version="1.0" encoding="UTF-8"?>
<svg xmlns="http://www.w3.org/2000/svg" xmlns:xlink="http://www.w3.org/1999/xlink" width="20px" height="20px" viewBox="0 0 20 20" version="1.1">
<g id="surface1">
<path style=" stroke:none;fill-rule:nonzero;fill:rgb(100%,85.490196%,26.666667%);fill-opacity:1;" d="M 5.351562 9.535156 C 6.84375 10.058594 8.417969 10.3125 10 10.28125 C 11.582031 10.3125 13.15625 10.058594 14.648438 9.535156 C 15.8125 9.078125 16.226562 8.574219 16.226562 8.285156 L 16.226562 6.0625 C 15.820312 6.335938 15.382812 6.5625 14.925781 6.734375 C 13.34375 7.300781 11.675781 7.574219 10 7.546875 C 8.324219 7.574219 6.65625 7.300781 5.074219 6.734375 C 4.617188 6.5625 4.179688 6.335938 3.773438 6.0625 L 3.773438 8.28125 C 3.773438 8.578125 4.1875 9.078125 5.351562 9.535156 Z M 5.351562 9.535156 "/>
<path style=" stroke:none;fill-rule:nonzero;fill:rgb(100%,85.490196%,26.666667%);fill-opacity:1;" d="M 5.351562 13.726562 C 5.878906 13.925781 6.421875 14.082031 6.976562 14.1875 C 7.972656 14.382812 8.984375 14.476562 10 14.472656 C 11.015625 14.476562 12.027344 14.382812 13.023438 14.1875 C 13.578125 14.082031 14.121094 13.925781 14.648438 13.726562 C 15.8125 13.273438 16.226562 12.765625 16.226562 12.476562 L 16.226562 10.359375 C 15.890625 10.558594 15.535156 10.734375 15.167969 10.875 C 13.511719 11.460938 11.757812 11.746094 10 11.710938 C 8.242188 11.742188 6.488281 11.457031 4.832031 10.871094 C 4.464844 10.730469 4.109375 10.554688 3.773438 10.355469 L 3.773438 12.476562 C 3.773438 12.765625 4.1875 13.269531 5.351562 13.726562 Z M 5.351562 13.726562 "/>
<path style=" stroke:none;fill-rule:nonzero;fill:rgb(100%,85.490196%,26.666667%);fill-opacity:1;" d="M 10 18.75 C 13.4375 18.75 16.226562 17.660156 16.226562 16.316406 L 16.226562 14.542969 C 15.921875 14.726562 15.601562 14.886719 15.265625 15.019531 L 15.167969 15.058594 C 13.511719 15.648438 11.761719 15.933594 10 15.902344 C 8.238281 15.933594 6.488281 15.648438 4.832031 15.058594 C 4.796875 15.046875 4.765625 15.03125 4.734375 15.019531 C 4.398438 14.886719 4.078125 14.726562 3.773438 14.542969 L 3.773438 16.316406 C 3.773438 17.660156 6.5625 18.75 10 18.75 Z M 10 18.75 "/>
<path style=" stroke:none;fill-rule:nonzero;fill:rgb(100%,85.490196%,26.666667%);fill-opacity:1;" d="M 16.226562 3.683594 C 16.226562 2.339844 13.4375 1.25 10 1.25 C 6.5625 1.25 3.773438 2.339844 3.773438 3.683594 C 3.773438 5.027344 6.5625 6.117188 10 6.117188 C 13.4375 6.117188 16.226562 5.027344 16.226562 3.683594 Z M 16.226562 3.683594 "/>
</g>
</svg>
